<?xml version="1.0" standalone="no"?>
<!DOCTYPE svg PUBLIC "-//W3C//DTD SVG 20010904//EN"
 "http://www.w3.org/TR/2001/REC-SVG-20010904/DTD/svg10.dtd">
<svg version="1.0" xmlns="http://www.w3.org/2000/svg"
 viewBox="0 0 2600.000000 2600.000000"
 preserveAspectRatio="xMidYMid meet">
<metadata>
Created by potrace 1.15, written by Peter Selinger 2001-2017
</metadata>
<g transform="translate(0.000000,2600.000000) scale(0.100000,-0.100000)"
fill="#000000" stroke="none">
<path d="M11435 23073 l-91 -4 -219 -201 c-121 -110 -231 -208 -244 -217 -20
-13 -51 -16 -156 -15 -109 0 -181 9 -445 54 -276 47 -333 54 -460 54 -136 1
-148 -1 -194 -24 -71 -36 -91 -67 -91 -143 1 -49 7 -75 33 -127 68 -137 239
-303 470 -457 123 -82 313 -183 380 -204 33 -9 42 -17 42 -34 0 -35 -84 -196
-134 -258 l-46 -56 49 -46 c96 -89 132 -192 151 -429 15 -179 37 -254 94 -311
62 -62 135 -87 272 -93 l111 -4 26 -53 26 -53 -68 -65 c-38 -36 -113 -98 -167
-139 -213 -161 -243 -230 -269 -603 -38 -553 -60 -696 -160 -1056 -94 -339
-88 -399 75 -819 161 -415 126 -614 -116 -659 -64 -12 -82 -11 -254 19 -237
40 -433 82 -568 120 l-107 31 -210 213 c-193 197 -216 217 -288 252 -66 32
-91 38 -161 42 -85 4 -193 -17 -208 -41 -4 -7 -8 -32 -8 -57 0 -60 -9 -71 -71
-87 -110 -28 -189 -114 -189 -207 0 -62 28 -109 89 -148 l46 -29 -3 -62 c-6
-110 56 -238 180 -373 47 -50 56 -66 60 -106 7 -63 45 -136 88 -170 105 -83
281 -58 665 94 90 35 173 61 207 65 56 6 59 5 240 -85 101 -50 229 -109 285
-131 110 -44 294 -101 323 -101 26 0 30 -27 30 -200 0 -362 46 -508 290 -916
206 -344 250 -469 250 -712 0 -200 -29 -384 -131 -842 -97 -437 -121 -528
-193 -745 -108 -322 -206 -554 -492 -1172 -271 -585 -357 -783 -464 -1078
-100 -274 -142 -440 -177 -700 -27 -197 -25 -826 4 -1285 12 -190 25 -410 28
-490 7 -188 30 -1552 30 -1825 0 -241 -9 -282 -75 -357 -46 -52 -98 -79 -312
-159 -208 -78 -297 -123 -538 -272 -236 -146 -406 -234 -520 -269 -47 -15
-139 -43 -205 -63 -246 -75 -380 -166 -418 -284 -22 -69 -21 -104 3 -185 36
-116 160 -226 341 -302 239 -101 535 -162 1109 -229 333 -39 339 -40 713 -161
461 -148 661 -168 834 -84 110 54 188 165 227 320 55 223 46 512 -33 1052 -41
277 -54 433 -54 633 0 303 29 527 153 1185 111 590 131 742 165 1240 47 677
137 1075 333 1466 82 163 168 289 375 547 97 120 205 260 241 310 88 122 191
333 266 542 66 184 149 370 161 358 4 -5 27 -58 52 -120 80 -196 174 -370 407
-753 301 -495 408 -702 535 -1035 137 -360 221 -511 365 -656 160 -160 364
-272 639 -350 58 -16 222 -54 364 -85 328 -70 470 -109 632 -174 188 -75 311
-118 570 -200 683 -215 958 -369 1181 -665 33 -44 126 -179 206 -300 84 -128
198 -285 273 -375 370 -447 556 -778 725 -1291 72 -218 93 -267 136 -318 94
-112 254 -69 444 119 146 145 201 294 201 549 0 150 -5 204 -57 515 -50 305
-45 416 31 691 67 239 85 335 92 465 10 223 -32 375 -131 469 -80 75 -141 100
-442 181 -448 119 -780 261 -1572 669 -224 115 -526 266 -672 334 -848 398
-1213 615 -1456 869 -98 102 -130 148 -204 292 -250 489 -370 1187 -370 2156
0 579 -41 861 -181 1237 -117 317 -280 615 -620 1140 l-119 183 61 92 c33 51
159 291 279 533 223 451 239 480 497 890 381 608 603 1052 681 1365 37 150 36
319 -1 436 -15 44 -44 107 -65 140 -55 83 -176 194 -327 299 -177 121 -256
186 -303 248 -91 119 -108 188 -122 495 -11 254 -17 289 -77 476 -92 288 -206
547 -306 696 -193 288 -559 619 -844 764 l-70 36 -6 167 c-6 189 -31 349 -82
538 -111 404 -256 578 -550 657 -71 19 -109 21 -355 23 -151 1 -316 0 -365 -2z
m1391 -1611 c148 -97 230 -321 254 -692 22 -363 -69 -756 -227 -972 l-35 -48
-81 62 c-587 446 -746 749 -548 1043 19 28 134 149 256 270 200 198 226 228
261 297 21 43 44 78 50 78 6 0 37 -17 70 -38z m489 -3053 c201 -13 293 -30
374 -70 80 -40 147 -105 156 -151 8 -43 -19 -127 -81 -250 -25 -49 -79 -175
-120 -280 -134 -338 -269 -616 -434 -893 -127 -214 -351 -545 -369 -545 -15 0
-43 149 -48 261 -7 132 3 212 52 439 81 375 142 868 171 1389 l7 123 66 -6
c36 -3 138 -11 226 -17z"/>
</g>
</svg>
